<mxfile host="app.diagrams.net" modified="2021-06-18T16:51:02.349Z" agent="5.0 (Macintosh)" etag="u1TJmZJOczlZsm0lIswt" version="13.0.1" type="github">
  <diagram id="cekkzNNrfFUs4i8XMLZ3" name="Page-1">
    <mxGraphModel dx="946" dy="640" grid="1" gridSize="10" guides="1" tooltips="1" connect="1" arrows="1" fold="1" page="1" pageScale="1" pageWidth="850" pageHeight="1100" math="0" shadow="0">
      <root>
        <mxCell id="0" />
        <mxCell id="1" parent="0" />
        <mxCell id="kdGubFxVMfeMPk4avIwd-1" value="User" style="shape=umlActor;verticalLabelPosition=bottom;labelBackgroundColor=#ffffff;verticalAlign=top;html=1;outlineConnect=0;" vertex="1" parent="1">
          <mxGeometry x="110" y="180" width="50" height="80" as="geometry" />
        </mxCell>
        <mxCell id="kdGubFxVMfeMPk4avIwd-4" value="" style="rounded=0;whiteSpace=wrap;html=1;" vertex="1" parent="1">
          <mxGeometry x="270" y="150" width="240" height="200" as="geometry" />
        </mxCell>
        <mxCell id="kdGubFxVMfeMPk4avIwd-5" value="" style="shape=flexArrow;endArrow=classic;html=1;" edge="1" parent="1" source="kdGubFxVMfeMPk4avIwd-1">
          <mxGeometry width="50" height="50" relative="1" as="geometry">
            <mxPoint x="400" y="360" as="sourcePoint" />
            <mxPoint x="268" y="218" as="targetPoint" />
          </mxGeometry>
        </mxCell>
        <mxCell id="kdGubFxVMfeMPk4avIwd-7" value="" style="shape=cylinder;whiteSpace=wrap;html=1;boundedLbl=1;backgroundOutline=1;" vertex="1" parent="1">
          <mxGeometry x="600" y="160" width="60" height="80" as="geometry" />
        </mxCell>
        <mxCell id="kdGubFxVMfeMPk4avIwd-8" value="" style="shape=flexArrow;endArrow=classic;startArrow=classic;html=1;entryX=0;entryY=0.5;entryDx=0;entryDy=0;exitX=1;exitY=0.25;exitDx=0;exitDy=0;" edge="1" parent="1" source="kdGubFxVMfeMPk4avIwd-4" target="kdGubFxVMfeMPk4avIwd-7">
          <mxGeometry width="50" height="50" relative="1" as="geometry">
            <mxPoint x="400" y="360" as="sourcePoint" />
            <mxPoint x="450" y="310" as="targetPoint" />
          </mxGeometry>
        </mxCell>
      </root>
    </mxGraphModel>
  </diagram>
</mxfile>
